<?xml version="1.0" encoding="UTF-8" standalone="no"?>
<!-- Created with Inkscape (http://www.inkscape.org/) -->

<svg
        xmlns:svg="http://www.w3.org/2000/svg"
        xmlns="http://www.w3.org/2000/svg"
        width="210mm"
        height="297mm"
        viewBox="0 0 210 297"
        version="1.1">
    <g>
        <path
                id="path3713"
                d="m 12.43432,4.6897724 0.0198,0.004 H 3.9558495 l 2.67154,-2.67743 c 0.13082,-0.13072 0.20258,-0.30779 0.20258,-0.49365 0,-0.18585 -0.0718,-0.36169 -0.20258,-0.49272 l -0.41569,-0.41590002 c -0.13072,-0.13071 -0.3049,-0.20299 -0.49065,-0.20299 -0.18586,0 -0.36015,0.0718 -0.49086,0.20248 L 0.65064951,5.1926824 c -0.13124,0.13124 -0.203,0.30604 -0.20248,0.492 -5.2e-4,0.18699 0.0712,0.3619 0.20248,0.49292 L 5.2301895,10.757142 c 0.13071,0.13061 0.3049,0.20248 0.49086,0.20248 0.18575,0 0.35993,-0.072 0.49065,-0.20248 l 0.41569,-0.4159 c 0.13082,-0.13051 0.20258,-0.3048 0.20258,-0.4906499 0,-0.1857497 -0.0718,-0.3508497 -0.20258,-0.4814697 l -2.70169,-2.6924 H 12.44379 c 0.38275,0 0.70438,-0.32989 0.70438,-0.71244 v -0.58822 c 0,-0.38255 -0.33113,-0.68663 -0.71388,-0.68663 z"
                style="fill:#000000;stroke-width:0.02581301" />
    </g>
</svg>