<svg viewBox="-31 0 512 512" xmlns="http://www.w3.org/2000/svg">
  <path d="m209.976562 0v62.511719c-34.1875 6.96875-59.992187 37.261719-59.992187 73.472656 0 41.347656 33.640625 74.992187 74.988281 74.992187 41.351563 0 74.992188-33.644531 74.992188-74.992187 0-36.210937-25.804688-66.503906-59.992188-73.472656v-62.511719zm29.996094 150.984375h-29.996094v-30h29.996094zm0 0"/>
  <path d="m0 330.960938v29.996093h73.585938l-20.199219 34.832031c-11.335938 19.554688-9.71875 41.996094.425781 59.679688l-24.082031 41.472656 25.957031 15.058594 87.066406-151.042969h67.222656v29.996094h29.996094v-29.996094h67.222656l87.066407 151.042969 25.957031-15.058594-24.082031-41.472656c10.144531-17.683594 11.761719-40.125.425781-59.679688l-20.199219-34.832031h73.585938v-29.996093h-90.984375l-66.722656-115.050782c-15.386719 12.972656-34.382813 21.457032-55.398438 23.863282l52.933594 91.1875h-49.804688v-29.996094h-29.996094v29.996094h-49.808593l52.9375-91.1875c-21.015625-2.40625-40.011719-10.890626-55.398438-23.863282l-66.722656 115.050782zm0 0"/>
</svg>