<svg
        xmlns="http://www.w3.org/2000/svg"
        viewBox="0 0 57 55"
        version="1.1">
    <g transform="matrix(0.26458333,0,0,0.26458333,-28.668569,114.2504)">
        <path
                d="m 142.62138,-253.00207 c 11.51668,11.50219 24.50851,28.54224 39.5044,24.5834 7.49292,-1.97809 12.27979,-12.76593 11.10388,-20.42582 -0.79982,-5.21007 -11.10388,-10.50262 -11.10388,-10.50262 -6.95347,-3.46225 -13.54478,-7.96752 -19.32485,-13.76208 -28.87139,-28.88587 -28.87139,-75.85075 0,-104.72213 28.87138,-28.82793 75.8073,-28.82793 104.72214,0 28.8424,28.90035 28.8424,75.83626 0,104.72213 -0.0724,0.0869 -0.30422,0.23178 -0.40562,0.36216 h -0.029 l -17.10843,-17.07946 c 0,0 -2.3982,51.9437 0.1014,54.23705 2.07321,1.90215 54.20809,0.0724 54.20809,0.0724 l -17.036,-17.036 c 0.10141,-0.17383 0.26076,-0.34767 0.39113,-0.44907 40.02591,-40.01142 40.02591,-104.92495 0,-144.93637 -40.08385,-40.05488 -104.95391,-40.05488 -145.02328,0 -39.99693,40.01142 -40.04039,104.92495 0,144.93637 z"
                style="fill:#FFFFFF;"/>
    </g>
</svg>
