<?xml version="1.0" encoding="UTF-8" standalone="no"?>
<!-- Created with Inkscape (http://www.inkscape.org/) -->

<svg
   xmlns="http://www.w3.org/2000/svg"
   xmlns:xlink="http://www.w3.org/1999/xlink"
   viewBox="0 0 210 220"
   version="1.1">
  <defs>
    <linearGradient
       id="linearGradient1480">
      <stop
         style="stop-color:#ff6600;stop-opacity:1"
         offset="0"
         id="stop1476" />
      <stop
         style="stop-color:#ffcc00;stop-opacity:1"
         offset="1"
         id="stop1478" />
    </linearGradient>
    <filter
       style="color-interpolation-filters:sRGB"
       id="filter1464"
       x="-0.16043998"
       width="1.32088"
       y="-0.16605664"
       height="1.3321133">
      <feGaussianBlur
         stdDeviation="2.2791129"
         id="feGaussianBlur1466" />
    </filter>
    <linearGradient
       xlink:href="#linearGradient1480"
       id="linearGradient1482"
       x1="3.0860162"
       y1="258.91443"
       x2="115.91697"
       y2="105.50173"
       gradientUnits="userSpaceOnUse"
       gradientTransform="matrix(0.17869921,0,0,0.17765509,2.1691571,2.1943174)" />
  </defs>
  <g>
    <path
       style="opacity:0.15;fill:#000000;stroke:#c39b00;filter:url(#filter1464)"
       id="path14"
       d="M 32.127973,36.479909 21.232443,33.571617 11.057377,37.510861 10.456423,26.249885 3.5657099,17.790115 14.08983,13.738741 l 5.916372,-9.1676699 7.105217,8.7570889 10.547232,2.793839 -6.132854,9.463553 z"
       transform="matrix(5.5959956,0,0,5.6288845,-12.138593,-12.351559)" />
    <path
       style="fill:url(#linearGradient1482);stroke:#f66235;"
       id="path14-3"
       d="M 31.598806,34.36324 20.703276,31.454948 10.528209,35.394193 9.9272555,24.133217 3.0365427,15.673447 13.560663,11.622072 19.477035,2.4544024 26.582252,11.211492 37.129484,14.00533 30.99663,23.468883 Z"
       transform="matrix(5.5959956,0,0,5.6288845,-12.138593,-12.351559)" />
  </g>
</svg>
